<?xml version="1.0" standalone="no"?>
<!DOCTYPE svg PUBLIC "-//W3C//DTD SVG 20010904//EN"
 "http://www.w3.org/TR/2001/REC-SVG-20010904/DTD/svg10.dtd">
<svg version="1.0" xmlns="http://www.w3.org/2000/svg"
 width="980.000000pt" height="980.000000pt" viewBox="0 0 980.000000 980.000000"
 preserveAspectRatio="xMidYMid meet">
<metadata>
Created by potrace 1.11, written by Peter Selinger 2001-2013
</metadata>
<g transform="translate(0.000000,980.000000) scale(0.100000,-0.100000)"
fill="#000000" stroke="none">
<path d="M4540 9699 c-497 -35 -1056 -169 -1520 -364 -459 -193 -978 -510
-1300 -794 -330 -291 -698 -710 -938 -1068 -124 -184 -301 -526 -432 -832
-154 -362 -268 -817 -327 -1306 -25 -213 -25 -842 0 -1063 51 -450 173 -935
326 -1302 133 -319 362 -741 536 -989 327 -467 801 -930 1278 -1250 339 -228
719 -414 1205 -590 78 -29 146 -50 151 -46 5 3 37 57 70 121 278 529 680 897
1060 970 101 20 381 20 481 0 211 -41 416 -160 611 -356 171 -172 332 -390
444 -603 37 -70 66 -112 81 -119 68 -31 677 221 1089 451 606 339 1195 885
1604 1486 214 315 465 818 587 1178 102 302 187 689 230 1057 22 183 30 685
15 877 -41 514 -154 1008 -336 1468 -66 168 -248 535 -343 693 -907 1498
-2510 2402 -4242 2391 -118 -1 -267 -5 -330 -10z m615 -399 c463 -30 892 -117
1278 -259 773 -285 1458 -780 1986 -1436 532 -661 864 -1461 961 -2315 29
-259 21 -807 -16 -1089 -135 -1034 -664 -2036 -1441 -2732 -243 -219 -529
-426 -798 -580 -197 -113 -604 -299 -653 -299 -13 0 -41 32 -86 95 -275 387
-510 607 -814 759 -279 140 -469 177 -795 157 -235 -15 -364 -49 -558 -147
-318 -159 -566 -390 -814 -754 l-81 -117 -99 39 c-330 130 -730 358 -1050 598
-929 696 -1565 1777 -1735 2948 -44 304 -52 912 -15 1180 110 809 404 1535
870 2152 111 146 228 276 464 510 237 237 364 346 558 482 357 251 745 446
1158 583 570 190 1106 261 1680 225z"/>
<path d="M4630 8662 c-131 -44 -209 -89 -317 -180 -118 -99 -232 -293 -273
-462 -24 -102 -27 -281 -6 -382 64 -297 297 -557 594 -659 95 -33 101 -34 262
-34 124 0 180 4 225 17 266 74 454 226 570 461 69 141 88 224 89 397 1 167
-13 236 -74 366 -52 112 -105 186 -191 270 -86 82 -145 124 -232 164 -110 52
-166 62 -372 66 -188 4 -191 4 -275 -24z m381 -376 c90 -19 136 -45 214 -118
110 -102 157 -206 158 -348 0 -104 -22 -174 -87 -264 -55 -77 -128 -138 -216
-180 -89 -42 -215 -49 -318 -17 -127 38 -269 167 -313 283 -20 53 -24 81 -24
179 l0 116 42 84 c67 136 195 245 315 268 67 13 157 12 229 -3z"/>
<path d="M2595 7816 c-169 -43 -355 -163 -461 -299 -206 -263 -254 -631 -121
-921 152 -327 443 -516 796 -516 64 0 145 7 181 14 87 19 210 67 289 113 81
48 199 157 256 238 61 84 133 238 146 310 16 85 6 364 -15 439 -47 167 -103
263 -226 386 -131 131 -281 217 -421 239 -87 15 -362 12 -424 -3z m375 -402
c144 -41 267 -172 315 -339 23 -77 16 -207 -15 -288 -48 -126 -167 -240 -295
-282 -78 -26 -226 -27 -305 -3 -129 40 -251 157 -301 288 -26 68 -36 197 -20
270 39 181 200 344 368 370 72 11 181 4 253 -16z"/>
<path d="M6750 7815 c-263 -65 -530 -317 -609 -577 -50 -165 -48 -442 5 -574
112 -283 324 -482 592 -556 105 -30 373 -32 472 -4 376 104 629 418 647 806
13 270 -73 497 -254 671 -117 114 -297 216 -417 238 -83 15 -368 13 -436 -4z
m349 -390 c226 -60 374 -265 358 -495 -17 -248 -199 -431 -442 -447 -97 -7
-166 7 -253 48 -112 54 -219 184 -252 307 -18 68 -14 188 9 262 26 83 55 129
120 195 119 120 302 172 460 130z"/>
<path d="M1791 5749 c-206 -40 -419 -178 -549 -354 -125 -169 -183 -392 -160
-615 37 -373 312 -677 688 -765 109 -25 281 -23 393 4 307 74 543 296 639 601
21 68 23 94 23 265 0 217 -4 234 -86 395 -127 247 -337 407 -612 465 -74 16
-264 18 -336 4z m372 -441 c298 -142 368 -520 141 -758 -114 -120 -203 -155
-375 -148 -95 4 -114 8 -171 36 -125 62 -219 173 -259 304 -28 90 -23 224 10
310 47 120 162 234 284 279 43 16 73 19 172 16 115 -3 124 -4 198 -39z"/>
<path d="M7697 5750 c-408 -74 -702 -402 -733 -820 -35 -468 316 -881 792
-930 355 -37 686 137 858 452 81 146 111 286 104 474 -5 108 -10 144 -36 224
-93 283 -328 505 -622 586 -65 18 -294 27 -363 14z m356 -439 c79 -40 172
-132 211 -209 43 -85 59 -165 53 -265 -6 -119 -43 -193 -146 -297 -104 -105
-160 -132 -293 -138 -169 -8 -262 25 -369 129 -110 109 -167 278 -142 424 24
142 115 272 235 335 93 50 139 59 269 57 109 -2 119 -4 182 -36z"/>
</g>
</svg>
